<?xml version="1.0" encoding="UTF-8" standalone="no"?>
<!-- Created with Inkscape (http://www.inkscape.org/) -->

<svg
   width="1080"
   height="1080"
   viewBox="0 0 285.75 285.75"
   version="1.1"
   id="svg5"
   inkscape:version="1.1.2 (b8e25be833, 2022-02-05)"
   sodipodi:docname="hazfaxtaran.svg"
   inkscape:export-filename="G:\A-A\MyPython\nojoom\hazfaxtaran\hazfaxtaran.png"
   inkscape:export-xdpi="96"
   inkscape:export-ydpi="96"
   xmlns:inkscape="http://www.inkscape.org/namespaces/inkscape"
   xmlns:sodipodi="http://sodipodi.sourceforge.net/DTD/sodipodi-0.dtd"
   xmlns="http://www.w3.org/2000/svg"
   xmlns:svg="http://www.w3.org/2000/svg">
  <sodipodi:namedview
     id="namedview7"
     pagecolor="#ffffff"
     bordercolor="#666666"
     borderopacity="1.0"
     inkscape:pageshadow="2"
     inkscape:pageopacity="0.0"
     inkscape:pagecheckerboard="true"
     inkscape:document-units="px"
     showgrid="false"
     units="px"
     scale-x="1"
     inkscape:snap-intersection-paths="true"
     inkscape:object-paths="true"
     inkscape:snap-midpoints="true"
     inkscape:snap-smooth-nodes="true"
     inkscape:snap-bbox="true"
     inkscape:snap-object-midpoints="false"
     inkscape:snap-center="false"
     inkscape:bbox-paths="false"
     inkscape:bbox-nodes="false"
     inkscape:snap-bbox-edge-midpoints="false"
     inkscape:snap-bbox-midpoints="false"
     inkscape:snap-others="true"
     inkscape:zoom="0.5"
     inkscape:cx="347"
     inkscape:cy="429"
     inkscape:window-width="1920"
     inkscape:window-height="1001"
     inkscape:window-x="-9"
     inkscape:window-y="-9"
     inkscape:window-maximized="1"
     inkscape:current-layer="layer1" />
  <defs
     id="defs2" />
  <g
     inkscape:label="Layer 1"
     inkscape:groupmode="layer"
     id="layer1">
    <circle
       style="fill:#081041;fill-opacity:1;stroke:none;stroke-width:43.0321;stroke-linecap:round;stroke-miterlimit:3.2;stroke-dasharray:none;stroke-opacity:1;paint-order:stroke markers fill;stop-color:#000000"
       id="path1517"
       cx="142.875"
       cy="142.875"
       r="132.29167" />
    <path
       id="path3209"
       style="fill:#ffffff;stroke-width:7.08527;stroke-linecap:round;stroke-miterlimit:3.2;paint-order:stroke markers fill;stop-color:#000000"
       d="m 213.46989,176.53531 c 0,0 -0.0713,12.30507 -0.15462,12.32026 -0.60024,0.10951 -1.06882,0.59624 -1.15111,1.20555 -0.009,0.0628 -13.29093,0.44305 -13.29093,0.44305 0,0 13.28229,-0.12445 13.29045,-0.0629 0.0842,0.63653 0.58996,1.14005 1.22753,1.22098 0.0591,0.008 0.14147,13.53274 0.14147,13.53274 0,0 0.18177,-13.5267 0.25081,-13.537 0.63967,-0.0955 1.14,-0.61747 1.20245,-1.26736 0.004,-0.0452 13.86537,0.0194 13.86537,0.0194 0,0 -13.86161,-0.26063 -13.86709,-0.31133 -0.0719,-0.66498 -0.60258,-1.19239 -1.26909,-1.25909 -0.0471,-0.005 -0.24524,-12.30428 -0.24524,-12.30428 z"
       sodipodi:nodetypes="csscsscsscssc" />
    <path
       id="path3211"
       style="fill:#ffffff;stroke-width:7.08527;stroke-linecap:round;stroke-miterlimit:3.2;paint-order:stroke markers fill;stop-color:#000000"
       d="m 185.98676,201.41313 c 0,0 -0.0713,12.30507 -0.15462,12.32025 -0.60024,0.10952 -1.06882,0.59624 -1.1511,1.20556 -0.009,0.0628 -13.29094,0.44305 -13.29094,0.44305 0,0 13.28229,-0.12446 13.29045,-0.0629 0.0842,0.63653 0.58996,1.14005 1.22753,1.22098 0.0591,0.008 0.14147,13.53274 0.14147,13.53274 0,0 0.18178,-13.5267 0.25081,-13.537 0.63967,-0.0955 1.14,-0.61747 1.20245,-1.26736 0.004,-0.0453 13.86537,0.0194 13.86537,0.0194 0,0 -13.86161,-0.26063 -13.86709,-0.31133 -0.0719,-0.66498 -0.60258,-1.19239 -1.26909,-1.25909 -0.0471,-0.005 -0.24524,-12.30428 -0.24524,-12.30428 z"
       sodipodi:nodetypes="csscsscsscssc" />
    <path
       id="path3213"
       style="fill:#ffffff;stroke-width:7.08527;stroke-linecap:round;stroke-miterlimit:3.2;paint-order:stroke markers fill;stop-color:#000000"
       d="m 147.19809,178.15936 c 0,0 -0.0713,12.30507 -0.15462,12.32025 -0.60024,0.10952 -1.06882,0.59624 -1.1511,1.20556 -0.009,0.0628 -13.29094,0.44305 -13.29094,0.44305 0,0 13.28229,-0.12446 13.29045,-0.0629 0.0842,0.63653 0.58996,1.14005 1.22753,1.22098 0.0591,0.008 0.14147,13.53274 0.14147,13.53274 0,0 0.18178,-13.5267 0.25081,-13.537 0.63967,-0.0955 1.14,-0.61747 1.20245,-1.26737 0.004,-0.0452 13.86537,0.0194 13.86537,0.0194 0,0 -13.86161,-0.26063 -13.86709,-0.31133 -0.0719,-0.66499 -0.60258,-1.1924 -1.26909,-1.2591 -0.0471,-0.005 -0.24524,-12.30427 -0.24524,-12.30427 z"
       sodipodi:nodetypes="csscsscsscssc" />
    <path
       id="path3215"
       style="fill:#ffffff;stroke-width:7.08527;stroke-linecap:round;stroke-miterlimit:3.2;paint-order:stroke markers fill;stop-color:#000000"
       d="m 150.51618,147.29524 c 0,0 -0.0713,12.30509 -0.15462,12.32028 -0.60024,0.10951 -1.06882,0.59624 -1.1511,1.20555 -0.009,0.0628 -13.29094,0.44305 -13.29094,0.44305 0,0 13.28229,-0.12445 13.29045,-0.0629 0.0842,0.63652 0.58996,1.14005 1.22753,1.22098 0.0591,0.008 0.14147,13.53273 0.14147,13.53273 0,0 0.18178,-13.52669 0.25081,-13.537 0.63967,-0.0955 1.14,-0.61747 1.20245,-1.26736 0.004,-0.0452 13.86542,0.0194 13.86542,0.0194 0,0 -13.86166,-0.26063 -13.86714,-0.31133 -0.0719,-0.66498 -0.60258,-1.19239 -1.26909,-1.25909 -0.0471,-0.005 -0.24524,-12.3043 -0.24524,-12.3043 z"
       sodipodi:nodetypes="csscsscsscssc" />
    <path
       id="path3217"
       style="fill:#ffffff;stroke-width:7.08527;stroke-linecap:round;stroke-miterlimit:3.2;paint-order:stroke markers fill;stop-color:#000000"
       d="m 123.37869,121.57616 c 0,0 -0.0713,12.30501 -0.15463,12.32019 -0.60023,0.10952 -1.06881,0.59624 -1.1511,1.20556 -0.009,0.0628 -13.29093,0.44305 -13.29093,0.44305 0,0 13.28228,-0.12445 13.29045,-0.0629 0.0842,0.63653 0.58996,1.14005 1.22753,1.22098 0.0591,0.008 0.14147,13.53275 0.14147,13.53275 0,0 0.18177,-13.52671 0.25081,-13.53701 0.63967,-0.0955 1.14,-0.61747 1.20245,-1.26736 0.004,-0.0453 13.86537,0.0194 13.86537,0.0194 0,0 -13.86161,-0.26063 -13.86709,-0.31133 -0.0719,-0.66498 -0.60258,-1.19239 -1.26909,-1.25909 -0.0471,-0.005 -0.24524,-12.30422 -0.24524,-12.30422 z"
       sodipodi:nodetypes="csscsscsscssc" />
    <path
       id="path3219"
       style="fill:#ffffff;stroke-width:7.08527;stroke-linecap:round;stroke-miterlimit:3.2;paint-order:stroke markers fill;stop-color:#000000"
       d="m 97.603838,87.209892 c 0,0 -0.07133,12.304997 -0.154621,12.320183 -0.600235,0.109517 -1.068818,0.596235 -1.151102,1.205555 -0.0087,0.0628 -13.290895,0.44304 -13.290895,0.44304 0,0 13.282247,-0.12445 13.290408,-0.0629 0.08421,0.63653 0.589963,1.14005 1.22753,1.22098 0.0591,0.008 0.14147,13.53266 0.14147,13.53266 0,0 0.181778,-13.52662 0.250814,-13.53693 0.639667,-0.0955 1.139996,-0.61746 1.20245,-1.26735 0.0043,-0.0452 13.865368,0.0194 13.865368,0.0194 0,0 -13.861612,-0.26063 -13.867089,-0.31133 -0.07187,-0.66498 -0.602583,-1.192384 -1.269094,-1.259081 -0.04708,-0.0054 -0.245239,-12.304207 -0.245239,-12.304207 z"
       sodipodi:nodetypes="csscsscsscssc" />
    <path
       id="path3221"
       style="fill:#ffffff;stroke-width:7.08527;stroke-linecap:round;stroke-miterlimit:3.2;paint-order:stroke markers fill;stop-color:#000000"
       d="m 52.927553,67.735673 c 0,0 -0.07133,12.304997 -0.154621,12.320183 -0.600224,0.109517 -1.068806,0.596237 -1.15109,1.20555 -0.0087,0.06278 -13.290863,0.443046 -13.290863,0.443046 0,0 13.282214,-0.124455 13.290376,-0.06289 0.08421,0.636525 0.589962,1.140044 1.227519,1.220975 0.0591,0.0076 0.141469,13.532658 0.141469,13.532658 0,0 0.181779,-13.526618 0.250815,-13.536923 0.639666,-0.09547 1.139985,-0.617463 1.202439,-1.267355 0.0043,-0.04524 13.865293,0.01937 13.865293,0.01937 0,0 -13.861537,-0.260629 -13.867014,-0.311328 -0.07187,-0.664981 -0.602573,-1.192389 -1.269083,-1.259087 -0.04708,-0.0054 -0.24524,-12.304206 -0.24524,-12.304206 z"
       sodipodi:nodetypes="csscsscsscssc" />
    <circle
       style="fill:none;stroke:#ff0000;stroke-width:21.1666;stroke-linecap:round;stroke-miterlimit:3.2;stroke-dasharray:none;stroke-opacity:1;paint-order:stroke markers fill;stop-color:#000000;fill-opacity:1"
       id="path843"
       cx="142.875"
       cy="142.875"
       r="124.88336" />
    <path
       style="fill:none;stroke:#ffffff;stroke-width:0.264583px;stroke-linecap:butt;stroke-linejoin:miter;stroke-opacity:1;fill-opacity:1"
       d="M 213.809,190.30252 185.80128,215.05935 147.29065,192.053 150.54155,159.7941 123.53409,134.7872 97.776984,100.27767 52.764562,81.02236"
       id="path3265" />
    <rect
       style="fill:#ff0000;fill-opacity:1;stroke:none;stroke-width:10.8835;stroke-linecap:round;stroke-miterlimit:3.2;stroke-dasharray:none;stroke-opacity:1;paint-order:stroke markers fill;stop-color:#000000"
       id="rect1175"
       width="264.58334"
       height="21.166666"
       x="-132.29167"
       y="191.47243"
       ry="0.082539111"
       transform="rotate(-45)" />
    <path
       id="path23430"
       style="font-size:50.8px;line-height:1.25;font-family:'0 Arshia';-inkscape-font-specification:'0 Arshia';fill:#ffffff;stroke-width:0.189301"
       d="m 94.332408,180.94674 10.920792,11.21819 1.85723,-1.90781 -10.920786,-11.21819 z m 26.678162,-27.40461 10.92079,11.21818 1.85724,-1.90782 -10.92081,-11.21816 z m -38.725171,39.7802 5.571709,5.72343 c 1.502294,1.54321 3.305875,2.31057 5.410742,2.30208 2.11312,-0.017 3.920833,-0.79704 5.423129,-2.34024 1.394971,-1.43298 2.154391,-3.17968 2.278201,-5.24012 0.14033,-2.24697 -0.57367,-4.17598 -2.142005,-5.78702 l -5.670758,-5.82518 -1.869617,1.92054 5.299311,5.4436 c 1.114341,1.14469 1.708656,2.3996 1.782945,3.76475 0.08254,1.4245 -0.425098,2.70062 -1.522932,3.82834 -0.990525,1.0175 -2.175026,1.53048 -3.55351,1.53897 -1.386736,0 -2.575367,-0.50875 -3.565888,-1.52626 l -5.571709,-5.72342 z m 15.836026,-16.26725 7.362905,7.5634 c 1.19689,1.22948 1.77469,2.58614 1.73342,4.06999 l 2.62489,-0.17806 c 0.066,-2.10283 -0.63559,-3.90889 -2.10488,-5.41818 l -0.38381,-0.39427 c 0.10731,0.0593 0.34667,-0.10175 0.71812,-0.48333 l 0.12381,-0.12718 -2.5e-4,-2.6e-4 8.99727,-9.24228 2.6e-4,2.7e-4 0.91623,-0.94119 c 0.61082,-0.62745 0.91626,-1.32274 0.91626,-2.08587 0.80892,-0.0679 1.51466,-0.41124 2.11725,-1.03022 l 0.91621,-0.94119 2.86015,-2.93802 c 0.66036,-0.67833 0.97815,-1.50504 0.95339,-2.48015 -0.0165,-0.98358 -0.35908,-1.81878 -1.02769,-2.50559 l -2.60838,-2.67941 c -0.65208,-0.66984 -1.45688,-0.98782 -2.4144,-0.9539 -0.95751,0.0339 -1.76644,0.39004 -2.42679,1.06837 -0.68511,0.70377 -1.02766,1.53897 -1.02766,2.50559 0,0.96662 0.34255,1.80182 1.02766,2.50559 l 2.58362,2.65397 1.86962,-1.92052 -2.3979,-2.46319 c -0.46223,-0.47484 -0.4994,-0.91152 -0.11142,-1.31003 0.39621,-0.407 0.82542,-0.37309 1.28767,0.10174 l 2.39791,2.4632 c 0.3962,0.407 0.39207,0.81824 -0.0124,1.23372 l -2.77346,2.84899 -0.91625,0.94118 c -0.38794,0.39852 -0.78005,0.39429 -1.17625,-0.0127 l -5.07231,-5.21045 -1.86962,1.92054 5.07233,5.21044 c 0.3962,0.407 0.40033,0.80975 0.0124,1.20827 l -0.12768,0.13116 -9.78582,10.0523 -0.12383,0.12719 c -0.3962,0.407 -0.80066,0.39852 -1.21338,-0.0254 l -5.047537,-5.185 z m 27.061985,-27.7989 8.09755,8.31806 c 0.82544,0.8479 1.69214,1.32274 2.60012,1.42449 0.99052,0.11871 1.88612,-0.23318 2.6868,-1.05565 l 24.77965,-25.45441 c 1.67564,-1.72127 2.44742,-3.7181 2.31534,-5.99053 -0.11556,-2.05194 -0.89146,-3.81561 -2.32773,-5.29098 -1.5188,-1.56016 -3.3389,-2.32753 -5.46026,-2.30209 -2.11313,0.017 -3.9291,0.80552 -5.4479,2.36568 -1.5188,1.56017 -2.2782,3.42558 -2.2782,5.59625 0,2.17065 0.7594,4.03607 2.27821,5.59623 1.41148,1.44994 3.09126,2.22577 5.0393,2.32753 l -20.59469,21.15547 c -0.48701,0.50028 -1.02353,0.44941 -1.6096,-0.15262 l -8.22135,-8.44523 z m 33.74467,-34.63811 1.81985,1.86938 5.72361,-5.8795 2.5e-4,2.8e-4 c 0.99053,-1.0175 2.17092,-1.49235 3.54116,-1.42451 1.36196,0.0593 2.54235,0.60202 3.54112,1.628 l 2.97158,3.0525 c 0.43747,0.44939 0.44159,0.89455 0.0124,1.33546 l -2.79825,2.87444 -5.72364,5.87948 1.81983,1.8694 5.72365,-5.8795 2.5e-4,2.7e-4 2.92206,-3.00162 c 0.52827,-0.54267 0.83369,-1.23796 0.91622,-2.08588 0.80893,-0.0678 1.49818,-0.39428 2.06773,-0.97934 l 0.12382,-0.12718 18.80349,-19.315502 c 0.66034,-0.678333 0.97813,-1.505053 0.95337,-2.480154 -0.0165,-0.983582 -0.35907,-1.818773 -1.02769,-2.505582 l -6.04219,-6.206739 c -0.65211,-0.669852 -1.45692,-0.987828 -2.41442,-0.953904 -0.95749,0.03391 -1.76643,0.390035 -2.42678,1.068375 l -4.75452,4.883984 c -0.68512,0.703767 -1.02768,1.538965 -1.02768,2.50559 0,0.966625 0.34256,1.80182 1.02768,2.505592 l 6.01743,6.181296 1.86963,-1.920523 -5.83173,-5.990521 c -0.46224,-0.474831 -0.49939,-0.911509 -0.11143,-1.310027 l 4.75452,-4.883991 c 0.39622,-0.407004 0.82544,-0.37308 1.28767,0.101752 l 5.83174,5.990521 c 0.3962,0.406999 0.39207,0.818228 -0.0124,1.233713 l -18.71679,19.22646 -0.12381,0.12719 c -0.39623,0.407 -0.80069,0.39852 -1.2134,-0.0254 l -3.00872,-3.09065 c -1.51056,-1.55169 -3.29763,-2.35296 -5.36121,-2.40384 -2.10489,-0.0424 -3.90846,0.70801 -5.41075,2.25121 z m -50.98807,52.56303 c -0.23938,0.2459 -0.35907,0.54691 -0.35907,0.90304 0,0.33916 0.11968,0.6317 0.35907,0.87759 0.23938,0.2459 0.52828,0.37309 0.86671,0.38156 0.34668,0 0.63971,-0.12295 0.87908,-0.36884 0.23938,-0.2459 0.35907,-0.54691 0.35907,-0.90303 0,-0.35612 -0.11969,-0.65714 -0.35907,-0.90303 -0.23937,-0.2459 -0.52827,-0.3646 -0.86671,-0.35612 -0.34668,0 -0.6397,0.12294 -0.87908,0.36883 z m 2.12963,-2.18762 c -0.23937,0.24591 -0.35907,0.54691 -0.35907,0.90304 0,0.33916 0.1197,0.6317 0.35907,0.87759 0.23937,0.2459 0.52828,0.37308 0.86669,0.38155 0.3467,0 0.63972,-0.12294 0.8791,-0.36883 0.23939,-0.2459 0.35907,-0.54691 0.35907,-0.90304 0,-0.35611 -0.11967,-0.65712 -0.35906,-0.90302 -0.23939,-0.24589 -0.52827,-0.3646 -0.86671,-0.35612 -0.34669,0 -0.63972,0.12294 -0.87909,0.36883 z m 4.24687,-4.36251 c -0.23936,0.2459 -0.35907,0.5469 -0.35907,0.90303 0.008,0.34764 0.13207,0.64441 0.37145,0.8903 0.23113,0.23742 0.52003,0.35614 0.86672,0.35613 0.34668,0 0.63559,-0.11871 0.86671,-0.35613 0.23936,-0.24589 0.36318,-0.54266 0.37143,-0.8903 0,-0.35613 -0.11968,-0.65713 -0.35907,-0.90304 -0.23935,-0.24589 -0.53239,-0.36884 -0.87907,-0.36884 -0.34669,0 -0.63972,0.12295 -0.8791,0.36885 z m 32.55527,-33.41634 c -0.23938,0.2459 -0.35906,0.54691 -0.35906,0.90303 0.008,0.34765 0.13207,0.64442 0.37145,0.89032 0.23111,0.23742 0.52002,0.35612 0.8667,0.35612 0.34669,0 0.63559,-0.1187 0.86672,-0.35612 0.23937,-0.24589 0.36319,-0.54267 0.37145,-0.89032 0,-0.35612 -0.11968,-0.65713 -0.35906,-0.90303 -0.23939,-0.24589 -0.5324,-0.36884 -0.87911,-0.36884 -0.34668,0 -0.63971,0.12296 -0.87909,0.36884 z m 24.82504,-24.95837 c -0.23937,0.24589 -0.35906,0.54691 -0.35906,0.90303 0.008,0.34765 0.13207,0.64441 0.37145,0.89031 0.23113,0.23742 0.52003,0.35613 0.86672,0.35612 0.34667,0 0.63558,-0.11871 0.86671,-0.35612 0.23936,-0.2459 0.36319,-0.54266 0.37144,-0.89031 -1e-5,-0.35612 -0.11969,-0.65713 -0.35906,-0.90302 -0.23938,-0.24591 -0.53242,-0.36885 -0.87909,-0.36885 -0.34669,0 -0.63973,0.12294 -0.87911,0.36884 z m -83.245398,86.05489 c -0.239378,0.24589 -0.359067,0.5469 -0.359065,0.90303 0.0082,0.34764 0.132069,0.64442 0.371444,0.89031 0.231123,0.23741 0.52003,0.35612 0.86671,0.35612 0.346687,0 0.635586,-0.1187 0.86671,-0.35612 0.239378,-0.24589 0.363196,-0.54267 0.371449,-0.89031 -2e-6,-0.35613 -0.119689,-0.65714 -0.359068,-0.90303 -0.239373,-0.24589 -0.532407,-0.36885 -0.879088,-0.36884 -0.346685,-1e-5 -0.639716,0.12295 -0.879092,0.36884 z m 65.770898,-65.19618 c 1.01528,-1.04294 2.22866,-1.56016 3.64018,-1.55169 1.41148,-0.008 2.62901,0.50452 3.65256,1.53896 1.04003,1.05144 1.56008,2.30635 1.56008,3.76476 0,1.45841 -0.51591,2.71756 -1.54771,3.77745 -1.04005,1.06837 -2.26168,1.60256 -3.66493,1.60256 -1.40325,-0.017 -2.62077,-0.56386 -3.65257,-1.64071 -1.00706,-1.0514 -1.51055,-2.29786 -1.51057,-3.7393 0,-1.45842 0.50765,-2.7091 1.52296,-3.75203 z" />
  </g>
</svg>
